# xmcd CD database file
#
# Track frame offsets:
#	150
#	19410
#	33653
#	47925
#	63927
#	82464
#	94025
#	112651
#	130205
#	144415
#	159592
#	180580
#	195393
#
# Disc length: 2879 seconds
#
# Revision: 0
# Processed by: cddbd v1.5.2PL0 Copyright (c) Steve Scherf et al.
# Submitted via: CDex 1.51
#
DISCID=b00b3d0d
DTITLE=Michael Buble - Crazy Love
DYEAR=2009
DGENRE=Jazz
TTITLE0=Cry me a River 01
TTITLE1=All of me 02
TTITLE2=Georgia on my Mind 03
TTITLE3=Crazy Love 04
TTITLE4=Haven`t met you yet 05
TTITLE5=All is do is Dream of you 06
TTITLE6=Hold on 07
TTITLE7=Heartache Tonight 08
TTITLE8=You`re Nobody till somebody loves you 09
TTITLE9=Baby 10
TTITLE10=At this Moment 11
TTITLE11=Stardust 12
TTITLE12=Whatever it takes 13
EXTD=YEAR: 2009
EXTT0=
EXTT1=
EXTT2=
EXTT3=
EXTT4=
EXTT5=
EXTT6=
EXTT7=
EXTT8=
EXTT9=
EXTT10=
EXTT11=
EXTT12=
PLAYORDER=
